<svg width="20" height="20" viewBox="0 0 20 20" fill="none" xmlns="http://www.w3.org/2000/svg">
<path d="M2.04506 6.61625C2.27947 6.38191 2.59735 6.25027 2.92881 6.25027C3.26027 6.25027 3.57815 6.38191 3.81256 6.61625L10.0001 12.8038L16.1876 6.61625C16.4233 6.38855 16.7391 6.26256 17.0668 6.26541C17.3946 6.26826 17.7081 6.39972 17.9398 6.63148C18.1716 6.86324 18.3031 7.17675 18.3059 7.5045C18.3088 7.83224 18.1828 8.148 17.9551 8.38375L10.8838 15.455C10.6494 15.6893 10.3315 15.821 10.0001 15.821C9.6686 15.821 9.35072 15.6893 9.11631 15.455L2.04506 8.38375C1.81072 8.14934 1.67908 7.83146 1.67908 7.5C1.67908 7.16854 1.81072 6.85066 2.04506 6.61625Z" fill="#111111"/>
</svg>
