<svg width="131" height="44" viewBox="0 0 131 44" fill="none" xmlns="http://www.w3.org/2000/svg">
<path d="M44.3809 22C44.3809 34.1498 34.5299 44 22.379 44C10.2281 44 0.377075 34.1498 0.377075 22C0.377075 9.85019 10.2281 0 22.379 0C34.5299 0 44.3809 9.85019 44.3809 22Z" fill="white"/>
<path d="M32.7074 20.4662C29.2079 18.0877 24.7265 19.0569 22.3707 22.633C20.4113 25.6217 17.4451 25.9952 16.3035 25.9952C12.557 25.9952 9.99977 23.3594 9.24009 20.6364H9.23801C9.22763 20.6073 9.22348 20.5824 9.21518 20.5596C9.20688 20.5284 9.20272 20.4994 9.19235 20.4683C8.89345 19.3309 8.81665 18.7913 8.81665 17.5813C8.81665 11.0705 15.5023 3.81882 25.123 3.81882C34.7436 3.81882 40.6198 11.3217 42.0769 15.4913C42.0479 15.4145 42.025 15.3439 42.0001 15.2692C39.2042 7.1126 31.4703 1.24939 22.3603 1.24939C10.9068 1.24939 1.61206 10.5371 1.61206 22C1.61206 32.2445 9.00139 41.0092 19.253 41.0092C27.4249 41.0092 32.9212 36.4307 35.4369 30.1109C36.8193 26.6552 35.8437 22.5956 32.7053 20.4641" fill="#313131"/>
<path d="M42.2056 15.8919C40.9893 11.8239 35.3124 3.81677 25.123 3.81677C15.5023 3.81677 8.81665 11.0685 8.81665 17.5792C8.81665 18.7871 8.89345 19.3268 9.19234 20.4662C9.06573 19.9681 9.00346 19.4721 9.00346 18.9864C9.00346 12.2038 15.7929 7.50696 22.7733 7.50696C32.2259 7.50696 39.885 15.1655 39.885 24.613C39.885 32.0183 35.6216 38.4315 29.432 41.5115V41.5156C37.4171 38.6245 43.1168 30.9785 43.1168 21.9979C43.1168 19.8726 42.8324 17.9985 42.2077 15.8919" fill="#737373"/>
<path d="M66.2417 21.67V26.2444H64.3321V23.3553H54.4064V21.67H66.2397H66.2417ZM59.3962 31.3874V29.1521H53.3063V27.4668H67.4103V29.1521H61.3038V31.3874H66.275V36.7359H64.3654V33.0561H54.2694V31.3874H59.3962Z" fill="white"/>
<path d="M81.807 27.3111H84.0093V29.2205H81.807V36.7026H79.9161V21.3607H81.807V27.3111ZM76.5432 34.6894H74.6523V24.0256H68.9255V22.3051H76.5453V34.6873L76.5432 34.6894Z" fill="white"/>
<path d="M96.978 21.3586H98.8876V36.7005H96.978V21.3586ZM93.1443 34.6894H91.2347V24.0256H85.3523V22.3051H93.1443V34.6873V34.6894Z" fill="white"/>
<path d="M102.466 31.9539H114.472V36.7358H112.562V33.5707H102.466V31.9539ZM102.638 21.5143H114.472V25.659H104.529V26.6552H114.505V28.2367H109.5V29.3035H115.607V30.9203H101.503V29.3035H107.591V28.2367H102.638V24.092H112.564V23.1124H102.638V21.5122V21.5143Z" fill="white"/>
<path d="M128.92 21.3587H130.813V33.0726H128.92V27.4128H126.786V25.7628H128.92V21.3607V21.3587ZM124.501 24.7313C124.501 24.1813 124.304 23.7185 123.908 23.347C123.511 22.9755 123.044 22.7887 122.504 22.7887C121.965 22.7887 121.498 22.9755 121.103 23.347C120.709 23.7185 120.51 24.1813 120.51 24.7313C120.51 25.2813 120.707 25.7255 121.103 26.099C121.5 26.4726 121.967 26.6573 122.504 26.6573C123.042 26.6573 123.511 26.4726 123.908 26.099C124.304 25.7275 124.501 25.2709 124.501 24.7313ZM126.34 24.7313C126.34 25.2253 126.236 25.684 126.031 26.1073C125.825 26.5307 125.556 26.9106 125.221 27.2426C124.864 27.5643 124.456 27.8155 123.991 28.0002C123.526 28.1828 123.03 28.2762 122.502 28.2762C121.975 28.2762 121.479 28.1849 121.014 28.0002C120.549 27.8155 120.14 27.5643 119.785 27.2426C119.453 26.9106 119.183 26.5307 118.976 26.1073C118.77 25.684 118.667 25.2253 118.667 24.7313C118.667 24.2373 118.77 23.7766 118.976 23.347C119.181 22.9173 119.451 22.5355 119.785 22.2034C120.14 21.8817 120.551 21.6306 121.014 21.4458C121.479 21.2611 121.975 21.1698 122.502 21.1698C123.03 21.1698 123.526 21.2611 123.991 21.4458C124.456 21.6306 124.864 21.8817 125.221 22.2034C125.554 22.5355 125.823 22.9173 126.031 23.347C126.236 23.7766 126.34 24.2394 126.34 24.7313ZM118.548 36.4432V32.0577H120.439V34.7745H131V36.4432H118.546H118.548ZM127.7 30.5779H123.642V32.9004H121.732V30.5779H117.5V28.8926H127.7V30.5779Z" fill="white"/>
<path d="M60.8617 10.9356H59.6183V5.01224H60.8617V7.36375H61.97V4.99979H63.2632V11.0871H61.97V8.5862H60.8617V10.9377V10.9356ZM60.8886 13.723C60.8886 13.3743 60.7599 13.0734 60.5026 12.8139C60.2452 12.5566 59.938 12.4279 59.581 12.4279C59.224 12.4279 58.9188 12.5587 58.6656 12.8139C58.4124 13.0734 58.2858 13.3743 58.2858 13.723C58.2858 14.0717 58.4124 14.3726 58.6656 14.6258C58.9188 14.879 59.224 15.0056 59.581 15.0056C59.938 15.0056 60.2452 14.879 60.5026 14.6258C60.7599 14.3726 60.8886 14.0717 60.8886 13.723ZM62.2067 13.7354C62.2067 14.0675 62.1361 14.3809 61.995 14.6756C61.8538 14.9704 61.667 15.2298 61.4345 15.4519C61.1938 15.6781 60.9156 15.8566 60.6001 15.9894C60.2846 16.1202 59.9484 16.1887 59.5914 16.1887C59.2343 16.1887 58.896 16.1222 58.5764 15.9894C58.2567 15.8545 57.9765 15.6781 57.7357 15.4519C57.5032 15.2298 57.3164 14.9704 57.1753 14.6756C57.0342 14.383 56.9636 14.0696 56.9636 13.7354C56.9636 13.4013 57.0342 13.0879 57.1753 12.789C57.3164 12.4902 57.5032 12.2287 57.7357 12.0045C57.9765 11.7804 58.2567 11.6019 58.5764 11.469C58.896 11.3362 59.2343 11.2698 59.5914 11.2698C59.9484 11.2698 60.2846 11.3362 60.6001 11.469C60.9156 11.6019 61.1938 11.7804 61.4345 12.0045C61.6649 12.2287 61.8538 12.4902 61.995 12.789C62.1361 13.0879 62.2067 13.4034 62.2067 13.7354ZM57.4514 9.34167C57.4514 9.0179 57.333 8.73771 57.0964 8.50111C56.8598 8.26658 56.5754 8.1462 56.2433 8.1462C55.9112 8.1462 55.6289 8.2645 55.3965 8.50111C55.164 8.73771 55.0478 9.0179 55.0478 9.34167C55.0478 9.66545 55.164 9.94356 55.3965 10.176C55.6289 10.4085 55.9112 10.5247 56.2433 10.5247C56.5754 10.5247 56.8598 10.4105 57.0964 10.176C57.333 9.94356 57.4514 9.66545 57.4514 9.34167ZM58.7092 9.35413C58.7092 9.6696 58.6428 9.96431 58.5099 10.2383C58.3771 10.5122 58.1986 10.753 57.9744 10.9605C57.7523 11.1681 57.4908 11.3321 57.196 11.4524C56.9013 11.5728 56.5837 11.633 56.2433 11.633C55.9029 11.633 55.5853 11.5728 55.2906 11.4524C54.9959 11.3321 54.7364 11.1702 54.5122 10.9605C54.2881 10.753 54.1096 10.5122 53.9767 10.2383C53.8439 9.96431 53.7774 9.6696 53.7774 9.35413C53.7774 9.03865 53.8439 8.74186 53.9767 8.46375C54.1096 8.18563 54.2881 7.94281 54.5122 7.73526C54.7364 7.52771 54.9938 7.36167 55.2906 7.2413C55.5853 7.12299 55.9029 7.0628 56.2433 7.0628C56.5837 7.0628 56.9013 7.12299 57.196 7.2413C57.4908 7.36167 57.7502 7.52564 57.9744 7.73526C58.1986 7.94281 58.3771 8.18563 58.5099 8.46375C58.6407 8.73979 58.7092 9.03865 58.7092 9.35413ZM55.5231 5.68262V4.77356H56.9553V5.68262H58.9458V6.80337H53.3063V5.68262H55.5231Z" fill="white"/>
<path d="M73.025 10.7488V8.39523H71.0075V7.23711H73.025V4.99768H74.37V10.7488H73.025ZM72.1283 13.5237C72.1283 13.1169 71.9789 12.7662 71.68 12.4715C71.3811 12.1767 71.0282 12.0294 70.6214 12.0294C70.2146 12.0294 69.8638 12.1767 69.569 12.4715C69.2722 12.7662 69.1269 13.1169 69.1269 13.5237C69.1269 13.9305 69.2743 14.2792 69.569 14.5698C69.8638 14.8582 70.2125 15.0056 70.6214 15.0056C71.0303 15.0056 71.379 14.8603 71.68 14.5698C71.9789 14.2792 72.1283 13.9305 72.1283 13.5237ZM73.4484 13.5362C73.4484 13.9015 73.3737 14.2439 73.2243 14.5615C73.0748 14.879 72.8756 15.1613 72.6265 15.402C72.3691 15.6428 72.0681 15.8316 71.7236 15.9728C71.379 16.116 71.0158 16.1865 70.6339 16.1865C70.2519 16.1865 69.8866 16.116 69.5379 15.9728C69.1871 15.8316 68.8861 15.6428 68.6288 15.402C68.3797 15.1613 68.1804 14.879 68.031 14.5615C67.8815 14.2418 67.8068 13.9015 67.8068 13.5362C67.8068 13.1709 67.8815 12.8264 68.031 12.5026C68.1804 12.1767 68.3797 11.8986 68.6288 11.6558C68.8861 11.415 69.1892 11.2241 69.5379 11.083C69.8866 10.9418 70.2499 10.8713 70.6339 10.8713C71.0178 10.8713 71.379 10.9439 71.7236 11.083C72.0681 11.2241 72.3691 11.415 72.6265 11.6558C72.8756 11.8986 73.0748 12.1767 73.2243 12.5026C73.3737 12.8264 73.4484 13.1709 73.4484 13.5362ZM64.8345 6.46504V5.30693H71.0594V6.46504H68.4067L71.1714 9.83976L70.2249 10.6098L68.0081 7.84523L65.8059 10.7965L64.822 9.99957L67.5743 6.46296H64.8365L64.8345 6.46504Z" fill="white"/>
<path d="M85.014 11.9422H83.6689V4.99768H85.014V7.36164H86.5707V8.6941H85.014V11.9422ZM80.8191 8.04655C80.8191 7.80579 80.7713 7.57749 80.6758 7.36164C80.5804 7.14579 80.4537 6.95485 80.296 6.78881C80.1299 6.63108 79.9411 6.50447 79.7293 6.409C79.5176 6.31353 79.2914 6.26579 79.0506 6.26579C78.8098 6.26579 78.5815 6.31561 78.3656 6.409C78.1498 6.50447 77.9588 6.63108 77.7928 6.78881C77.635 6.95485 77.5084 7.14579 77.4129 7.36164C77.3174 7.57749 77.2697 7.80579 77.2697 8.04655C77.2697 8.2873 77.3174 8.51353 77.4129 8.72523C77.5084 8.939 77.635 9.12787 77.7928 9.29391C77.9588 9.44957 78.1498 9.57617 78.3656 9.67164C78.5815 9.76711 78.8098 9.81485 79.0506 9.81485C79.2914 9.81485 79.5176 9.76711 79.7293 9.67164C79.9411 9.5741 80.1299 9.44957 80.296 9.29391C80.4537 9.12579 80.5804 8.93693 80.6758 8.72523C80.7713 8.51353 80.8191 8.2873 80.8191 8.04655ZM77.992 12.0065V14.4328H85.2879V15.6282H76.647V12.0065H77.992ZM82.1143 8.0341C82.1143 8.44296 82.0333 8.82277 81.8714 9.17976C81.7095 9.53674 81.4874 9.85221 81.2051 10.1262C80.9228 10.3918 80.597 10.6035 80.2275 10.7613C79.858 10.919 79.4637 10.9979 79.0402 10.9979C78.6168 10.9979 78.2203 10.9211 77.8509 10.7613C77.4814 10.6035 77.1555 10.3918 76.8732 10.1262C76.591 9.85221 76.3709 9.53674 76.207 9.17976C76.0451 8.82277 75.9641 8.44089 75.9641 8.0341C75.9641 7.6273 76.0451 7.24749 76.207 6.88844C76.3689 6.53145 76.591 6.21598 76.8732 5.94202C77.1555 5.67636 77.4814 5.46466 77.8509 5.30693C78.2203 5.14919 78.6168 5.07032 79.0402 5.07032C79.4637 5.07032 79.8601 5.15127 80.2275 5.30693C80.597 5.46466 80.9228 5.67636 81.2051 5.94202C81.4853 6.21598 81.7074 6.52938 81.8714 6.88844C82.0354 7.24749 82.1143 7.6273 82.1143 8.0341Z" fill="white"/>
<path d="M95.7325 11.9422V8.74183H93.715V7.54636H95.7325V4.99561H97.0755V11.9422H95.7325ZM88.2872 15.6282V12.0065H89.6322V14.4328H97.1772V15.6282H88.2872ZM87.542 6.46504V5.30693H93.7669V6.46504H91.1266L93.879 10.5226L92.8577 11.2096L90.7177 7.949L88.5757 11.2967L87.5295 10.5994L90.2673 6.46504H87.542Z" fill="white"/>
<path d="M106.763 7.72275H101.061V9.21501H106.763V7.72275ZM101.063 6.55426H106.765V5.18652H108.095V10.4001H99.7304V5.18652H101.063V6.55426ZM98.9333 11.8571H108.892V13.0505H104.585V15.8378H103.23V13.0505H98.9333V11.8571Z" fill="white"/>
</svg>
