<svg width="24" height="24" viewBox="0 0 24 24" fill="none" xmlns="http://www.w3.org/2000/svg">
<path d="M2.25 12C2.25 13.558 2.616 15.033 3.268 16.342C3.372 16.552 3.382 16.865 3.263 17.352C3.19998 17.598 3.12658 17.8412 3.043 18.081L3.013 18.167C2.939 18.387 2.859 18.627 2.799 18.85C2.417 20.277 3.723 21.583 5.149 21.201C5.373 21.141 5.612 21.061 5.833 20.987L5.919 20.957C6.15879 20.8734 6.402 20.8 6.648 20.737C7.135 20.617 7.448 20.627 7.658 20.732C9.00662 21.404 10.4932 21.7525 12 21.75C17.385 21.75 21.75 17.385 21.75 12C21.75 6.615 17.385 2.25 12 2.25C6.615 2.25 2.25 6.615 2.25 12ZM14.584 9.392C14.7452 9.50844 14.8536 9.68416 14.8853 9.8805C14.917 10.0768 14.8694 10.2777 14.753 10.439L11.953 14.315C11.8605 14.4426 11.7405 14.5478 11.6019 14.6227C11.4632 14.6976 11.3094 14.7404 11.152 14.7478C10.9946 14.7551 10.8375 14.727 10.6924 14.6654C10.5474 14.6038 10.418 14.5104 10.314 14.392L8.936 12.816C8.81417 12.6652 8.75544 12.4732 8.77211 12.2801C8.78879 12.087 8.87958 11.9078 9.02545 11.7802C9.17132 11.6525 9.36095 11.5863 9.55456 11.5954C9.74818 11.6045 9.93075 11.6882 10.064 11.829L11.069 12.977L13.537 9.561C13.6534 9.39977 13.8292 9.29138 14.0255 9.25969C14.2218 9.228 14.4227 9.27559 14.584 9.392Z" fill="#438CE6"/>
</svg>
