<svg width="67" height="36" viewBox="0 0 67 36" fill="none" xmlns="http://www.w3.org/2000/svg">
<g clip-path="url(#clip0_1478_56168)">
<path d="M3.76472 6.38882C3.94836 6.66328 4.13201 6.99873 4.28505 7.39517C6.33576 7.28844 9.19757 7.02922 12.8552 6.63278C16.5128 6.22109 20.1092 5.76366 23.629 5.26048C23.8127 5.22999 23.981 5.21474 24.1341 5.21474H24.4401C24.685 5.21474 25.0829 5.33672 25.6491 5.59593C26.2154 5.85515 26.7969 6.17535 27.3938 6.58704C28.0977 7.15121 28.664 7.68488 29.0925 8.18806C29.521 8.69123 29.7353 9.01144 29.7353 9.17916C29.7353 9.45362 29.5822 9.68234 29.2914 9.88056C29.0007 10.0788 28.6487 10.1855 28.2355 10.1855C27.5315 10.1855 26.5827 10.3227 25.4043 10.5972C24.2106 10.8717 23.0628 11.2376 21.9609 11.695C21.9303 11.695 21.8997 11.6798 21.8538 11.6341C21.8079 11.5883 21.7926 11.5578 21.7926 11.5273C21.7926 11.4663 21.8997 11.2834 22.0987 10.9632C22.2976 10.6429 22.5578 10.2618 22.8486 9.83482C23.0934 9.42313 23.2924 9.05718 23.4607 8.72173C23.629 8.38628 23.7056 8.15756 23.7056 8.05083C23.7056 8.02033 23.7056 7.98983 23.6597 7.94409C23.629 7.89835 23.5984 7.86785 23.5831 7.83736C23.476 7.77636 23.3536 7.74587 23.2005 7.73062C23.0475 7.73062 22.9251 7.71537 22.8179 7.71537C21.7926 7.71537 20.5224 7.77637 19.0226 7.8831C17.5228 7.98983 16.1608 8.11182 14.9518 8.24905C14.003 8.35578 12.7021 8.53875 11.034 8.76747C9.36591 8.99619 7.78962 9.2859 6.27454 9.5756C5.99907 9.63659 5.75421 9.68234 5.50935 9.71283C5.26449 9.75858 5.09615 9.77382 5.01963 9.77382H4.8819C4.8819 9.77382 4.75947 9.77382 4.74416 9.72808C4.71355 10.0178 4.65234 10.4142 4.54521 10.8869C4.43809 11.3596 4.30035 11.817 4.14731 12.244C3.96367 12.7624 3.73411 13.2503 3.47395 13.7382C3.21378 14.2262 3.01483 14.5616 2.84649 14.7446C2.73936 14.8513 2.61693 14.9428 2.4792 15.0343C2.34147 15.1105 2.20373 15.1563 2.0813 15.1563C1.86705 15.1563 1.60688 15.08 1.31611 14.9123C1.02534 14.7446 0.749871 14.5464 0.505011 14.3024C0.397884 14.0889 0.290758 13.8297 0.183631 13.5095C0.0765045 13.2046 0.0152893 12.9149 0.0152893 12.6404C0.0152893 12.4269 0.0458969 12.2135 0.122416 12C0.183631 11.7865 0.275454 11.6036 0.38258 11.4816C0.673352 11.1309 1.05595 10.4905 1.51506 9.56036C1.97417 8.63024 2.38738 7.62389 2.76997 6.55654C2.83119 6.38882 2.8924 6.26684 2.99953 6.14485C3.09135 6.03812 3.18317 5.97713 3.25969 5.97713C3.42804 5.97713 3.59638 6.11436 3.78002 6.38882H3.76472ZM8.67724 13.0978C9.09044 13.2046 9.45773 13.3418 9.80972 13.5095C10.2076 13.4485 10.6667 13.3875 11.1871 13.3266C11.7074 13.2656 12.1359 13.1893 12.4879 13.0978C12.9929 13.0216 13.5898 12.8691 14.2325 12.6404C14.8753 12.4117 15.4415 12.183 15.9312 11.939C16.222 11.7713 16.5128 11.6493 16.7882 11.5273C17.0637 11.4206 17.2627 11.3596 17.4004 11.3596C17.5381 11.3596 17.8136 11.4358 18.2268 11.6036C18.64 11.7713 19.0991 11.9695 19.5888 12.2135C20.1245 12.5642 20.5836 12.9149 20.9509 13.2808C21.3182 13.6468 21.5018 13.906 21.5018 14.0737C21.5018 14.1499 21.5018 14.2414 21.4559 14.3634C21.4253 14.4701 21.3947 14.5464 21.3794 14.6074C20.9509 15.0648 20.5683 15.5375 20.2163 15.9949C19.8643 16.4524 19.6654 16.8183 19.5888 17.0623C19.4205 17.352 19.2828 17.7027 19.145 18.1144C19.0073 18.526 18.9155 18.8615 18.8543 19.1207C18.8237 19.1512 18.8083 19.1665 18.8083 19.1817C18.8083 19.1817 18.8083 19.2122 18.7624 19.2427C18.9002 19.4257 18.992 19.6086 19.0685 19.7916C19.1297 19.9746 19.1756 20.1118 19.1756 20.2186C19.145 20.2795 19.1144 20.3253 19.0532 20.3558C18.992 20.4015 18.9461 20.4168 18.8849 20.4168C18.0432 20.4168 17.079 20.4625 16.0078 20.554C14.9212 20.6455 13.9877 20.7675 13.1766 20.9047C12.6562 20.9809 12.1665 21.0572 11.6921 21.1334C11.2177 21.1944 10.881 21.2554 10.6514 21.3164V24.9911C11.0646 24.9301 11.5237 24.8844 12.0288 24.8081C12.5491 24.7471 12.9776 24.6709 13.3296 24.5794C13.8652 24.4727 14.508 24.2897 15.2426 24.061C15.9771 23.817 16.5893 23.5426 17.1096 23.2529C17.431 23.0699 17.7524 22.9022 18.0585 22.7954C18.3645 22.6887 18.5941 22.6125 18.7318 22.6125C18.9002 22.6125 19.1909 22.6887 19.6501 22.8564C20.1092 23.0241 20.5683 23.2376 21.0886 23.4968C21.6855 23.8475 22.1752 24.2135 22.5425 24.5947C22.9251 24.9759 23.1087 25.2503 23.1087 25.4485C23.1087 25.5553 23.1087 25.662 23.0628 25.7687C23.0322 25.8755 23.0016 25.9517 22.9863 26.0127C22.5272 26.5311 22.114 27.0191 21.7467 27.507C21.3794 27.9949 21.1651 28.3761 21.0733 28.6353C20.9662 28.925 20.8284 29.2757 20.6754 29.6722C20.5071 30.0686 20.3999 30.3888 20.354 30.6633C20.5377 30.9377 20.6907 31.1969 20.7825 31.4714C20.8744 31.7459 20.9203 31.9441 20.9203 32.0813C20.8897 32.1118 20.8591 32.1423 20.7978 32.1576C20.7366 32.1881 20.6907 32.2033 20.6295 32.2033C19.6348 32.2033 18.4717 32.2338 17.1555 32.31C15.8394 32.371 14.7222 32.4625 13.7734 32.5693C13.1766 32.6302 12.595 32.676 12.0135 32.737C11.4319 32.798 11.0034 32.8285 10.7432 32.859V33.6671C10.7126 33.8806 10.6361 34.1398 10.5137 34.46C10.3913 34.7649 10.2535 35.0546 10.0852 35.3291C9.90154 35.5426 9.70259 35.7255 9.50364 35.8475C9.30469 35.9848 9.13635 36.0457 8.99862 36.0457C8.75376 36.0457 8.49359 35.9085 8.23343 35.6188C7.95796 35.3291 7.74371 34.9784 7.59067 34.5515C7.48354 34.2008 7.37641 33.8501 7.26929 33.5146C7.16216 33.1792 7.10095 32.9199 7.10095 32.7217L7.14686 32.2795C7.28459 31.4714 7.39172 30.648 7.46824 29.8094C7.54476 28.9708 7.60597 28.3304 7.63658 27.8729C7.69779 26.8208 7.7437 25.4485 7.77431 23.7255C7.82022 22.0178 7.83553 20.3863 7.83553 18.8158C7.80492 17.6874 7.7131 16.6353 7.57536 15.69C7.42233 14.7294 7.28459 14.0889 7.14686 13.7687C7.11625 13.662 7.10095 13.5553 7.10095 13.4638V13.2808C7.10095 13.1741 7.16216 13.0978 7.26929 13.0368C7.37641 12.9759 7.51415 12.9606 7.66719 12.9606C7.94265 12.9606 8.27934 13.0216 8.67724 13.1283V13.0978ZM11.6156 19.0902C12.0135 19.0292 12.3808 18.9682 12.7327 18.9072C13.3602 18.77 14.003 18.6175 14.6763 18.4651C15.3497 18.2973 15.8853 18.1601 16.2526 18.0229C16.3138 17.9924 16.3597 17.9771 16.3903 17.9619C16.4363 17.9619 16.4669 17.9466 16.4975 17.9466C16.6046 17.3825 16.7117 16.8183 16.8036 16.2541C16.8954 15.69 16.9413 15.2783 16.9413 15.0038C16.9413 14.8971 16.8801 14.8208 16.7576 14.7598C16.6352 14.6989 16.5128 14.6836 16.375 14.6836C16.2067 14.6836 15.9006 14.7141 15.4262 14.7598C14.9518 14.8208 14.4621 14.8818 13.9417 14.9581C13.4214 15.0648 12.8552 15.141 12.2124 15.202C11.5697 15.263 11.0493 15.2935 10.6514 15.324C10.6208 15.568 10.6055 15.9187 10.6055 16.3761V19.2884C10.881 19.2274 11.2024 19.1665 11.6003 19.1055L11.6156 19.0902ZM10.6667 28.803C10.6667 29.5349 10.6667 30.1449 10.7126 30.6633C11.0646 30.6023 11.5084 30.5565 12.0288 30.4803C12.5491 30.4193 13.0388 30.3583 13.4673 30.2973C14.2172 30.1906 14.9977 30.0686 15.7782 29.9161C16.5587 29.7637 17.1861 29.6417 17.6453 29.5349C17.783 28.9708 17.8901 28.3914 17.9972 27.8119C18.0891 27.2325 18.135 26.7903 18.135 26.5006C18.135 26.3939 18.0891 26.3177 18.0126 26.2567C17.936 26.1957 17.8289 26.1804 17.6912 26.1804C17.5075 26.1804 17.1555 26.2109 16.6505 26.2567C16.1455 26.3177 15.5946 26.3787 15.013 26.4549C14.3396 26.5616 13.6051 26.6531 12.8246 26.7141C12.0441 26.7751 11.4013 26.8208 10.9116 26.8208H10.6667V28.803ZM13.299 0.13723C13.8652 0.228716 14.4009 0.350698 14.9212 0.487928C15.4109 0.594663 15.87 0.731893 16.2985 0.899618C16.727 1.06734 17.0178 1.20457 17.1555 1.3418C17.3239 1.44854 17.4463 1.61626 17.5381 1.82973C17.63 2.0432 17.6759 2.24142 17.6759 2.3939C17.6759 3.20203 17.4616 3.87294 17.0484 4.42185C16.6352 4.97078 16.1149 5.22999 15.4874 5.22999C15.212 5.22999 14.8447 5.04701 14.3856 4.66582C13.9264 4.28462 13.5132 3.81194 13.1306 3.24778C12.6715 2.62262 12.2889 2.0432 11.9676 1.50953C11.6615 0.975857 11.5084 0.640406 11.5084 0.503176C11.5084 0.365946 11.5543 0.259212 11.6309 0.182973C11.7074 0.106734 11.7992 0.0457429 11.9216 0.0152473C12.2736 0.0152473 12.7327 0.0609907 13.299 0.152477V0.13723Z" fill="#272E38"/>
<path d="M46.5848 6.70902C46.7531 6.77001 46.9367 6.81576 47.1357 6.87675C47.3193 7.01398 47.4877 7.16645 47.6254 7.31893C47.7632 7.47141 47.8244 7.60864 47.8244 7.73062C47.8244 7.8526 47.8244 7.95934 47.8091 8.08132C47.8091 8.2033 47.7785 8.31004 47.7479 8.43202C47.7172 8.554 47.6713 8.63024 47.5795 8.72173C47.503 8.79797 47.4265 8.85896 47.3806 8.88945C46.998 8.99619 46.5388 9.11817 46.0032 9.24015C45.4676 9.36213 44.9626 9.46887 44.5034 9.59085C44.5034 9.97204 44.5034 10.4295 44.4575 10.9784C44.4116 11.5273 44.3963 12.0152 44.381 12.4574C44.6718 12.3964 45.0391 12.3355 45.4523 12.2287C45.8655 12.1372 46.2634 12.0457 46.6154 11.9695C46.7837 11.939 46.9521 11.9238 47.1204 11.9085C47.2887 11.9085 47.4418 11.8933 47.5489 11.8933C48.008 11.9238 48.3906 12.0915 48.712 12.4117C49.0181 12.7319 49.1711 13.1436 49.1711 13.6163C49.1711 13.723 49.0487 13.8145 48.8038 13.906C48.559 13.9822 48.2376 14.0432 47.8244 14.0737C47.6407 14.1042 47.4112 14.1194 47.1816 14.1194C46.9521 14.1194 46.7225 14.1194 46.5389 14.1652C46.8143 14.2719 47.0133 14.3939 47.1663 14.5159C47.3193 14.6379 47.3959 14.7598 47.3959 14.8971C47.3959 14.9276 47.3806 14.9886 47.3346 15.08C47.2887 15.1715 47.2428 15.2783 47.1969 15.385C47.0898 15.568 46.9674 15.7662 46.8143 15.9644C46.6613 16.1626 46.5542 16.3151 46.4623 16.4219C46.3246 16.6353 46.141 16.9098 45.9114 17.23C45.6818 17.5502 45.4523 17.8551 45.238 18.1144C45.3145 18.0839 45.4064 18.0686 45.4829 18.0534C45.5594 18.0534 45.6206 18.0381 45.6512 18.0381C46.1716 18.0381 46.5848 18.1449 46.9061 18.3583C47.2275 18.5718 47.3959 18.8462 47.3959 19.1665C47.3959 19.3037 47.35 19.4257 47.2581 19.5324C47.1663 19.6391 47.0439 19.7154 46.9061 19.7764C46.3399 19.9441 45.6971 20.1118 44.9779 20.2795C44.2586 20.4625 43.6464 20.5997 43.1261 20.7065C43.1873 20.737 43.2179 20.7522 43.2485 20.7675C43.2791 20.7675 43.3097 20.798 43.3251 20.8285C43.6464 21.1029 43.9219 21.3469 44.1362 21.5756C44.3504 21.8043 44.4575 21.9415 44.4575 22.0025C44.4575 22.1093 44.4269 22.2313 44.381 22.3532C44.3198 22.4752 44.2739 22.5972 44.2127 22.7344C44.1821 22.7649 44.1668 22.7954 44.1668 22.8412C44.1668 22.8869 44.1668 22.9327 44.1209 22.9784C44.4116 22.9174 44.7636 22.8412 45.1768 22.7344C45.59 22.6277 45.942 22.5362 46.2787 22.4447C46.4623 22.4142 46.646 22.3837 46.8296 22.3685C46.998 22.338 47.151 22.3227 47.2581 22.3227C47.7785 22.3532 48.1917 22.5362 48.513 22.8869C48.8344 23.2376 49.0028 23.6798 49.0028 24.2135C49.0028 24.3202 48.8803 24.4269 48.6355 24.5184C48.3906 24.6099 48.0845 24.6709 47.7019 24.7014C47.2122 24.7319 46.6154 24.7929 45.9114 24.8844C45.2074 24.9759 44.58 25.0978 43.9984 25.2351V32.1118C43.9984 32.5388 43.9525 32.9352 43.8607 33.2859C43.7689 33.6366 43.6311 33.8653 43.4322 33.972C43.2638 34.155 43.0802 34.3227 42.8506 34.4295C42.6211 34.5362 42.4221 34.6125 42.2691 34.6125C42.1314 34.6125 41.963 34.521 41.7641 34.3532C41.5651 34.1703 41.3815 33.9568 41.2131 33.6823C41.0448 33.4384 40.9224 33.0877 40.8152 32.615C40.7081 32.1423 40.6469 31.6696 40.6469 31.1817C40.6469 31.1207 40.6622 31.0292 40.7081 30.892C40.754 30.7548 40.7846 30.6175 40.8152 30.4956C40.8918 30.2821 40.9683 30.0839 41.0142 29.9161C41.0754 29.7484 41.106 29.6264 41.1366 29.5654C41.1978 29.0775 41.2284 28.4828 41.259 27.7814C41.2896 27.08 41.3203 26.4396 41.3356 25.845C40.7081 26.0127 39.8817 26.2567 38.8563 26.5769C37.831 26.8971 36.8515 27.2173 35.9333 27.507C35.8262 27.568 35.7038 27.6137 35.566 27.6442C35.4283 27.69 35.3518 27.7052 35.3212 27.7052C35.2447 27.7052 35.061 27.629 34.8008 27.4765C34.5407 27.324 34.2193 27.141 33.8673 26.9276C33.5153 26.6531 33.2245 26.3634 32.995 26.0432C32.7654 25.723 32.643 25.418 32.643 25.1588C32.643 25.0978 32.6736 25.0673 32.7195 25.0368C32.7807 25.0064 32.8573 24.9911 32.9644 24.9911C33.5 24.9606 34.1428 24.9301 34.8774 24.8691C35.6119 24.8081 36.2241 24.7319 36.7444 24.6252C37.2494 24.5489 37.9534 24.4117 38.8104 24.2287C39.6674 24.0457 40.5092 23.8475 41.3203 23.6645V23.5883C41.3203 23.1919 41.2743 22.7954 41.1978 22.4295C41.1213 22.0635 41.0142 21.7891 40.8764 21.6061C40.8458 21.5451 40.8152 21.4841 40.7693 21.3774C40.7234 21.2859 40.7081 21.2249 40.7081 21.1944C40.1878 21.3011 39.7134 21.3774 39.2849 21.4384C38.8563 21.4994 38.5503 21.5146 38.3972 21.5146C38.1524 21.5146 37.9075 21.4841 37.6473 21.4384C37.3872 21.3774 37.1729 21.3316 36.974 21.2706C36.8362 21.1944 36.7138 21.1029 36.6067 20.9809C36.4996 20.8742 36.4383 20.798 36.4383 20.737C36.4383 20.6302 36.469 20.5235 36.5149 20.432C36.5761 20.3405 36.6526 20.2795 36.7597 20.249C37.8157 20.0661 38.9941 19.8069 40.2949 19.4867C41.5957 19.1665 42.6976 18.8615 43.6158 18.6023C43.7536 18.2211 43.876 17.8094 43.9831 17.3672C44.0902 16.925 44.1821 16.5286 44.2739 16.1779C44.3351 15.9339 44.3657 15.69 44.3963 15.446C44.4269 15.202 44.4422 15.0191 44.4422 14.8818C44.4422 14.8513 44.4269 14.8056 44.381 14.7446C44.3351 14.6836 44.2892 14.5921 44.2433 14.4854C43.9678 14.5159 43.6617 14.5616 43.2944 14.6531C42.9272 14.7294 42.6058 14.8056 42.3456 14.8513C41.9936 14.9123 41.5345 15.0038 40.9683 15.141C40.402 15.2783 39.8817 15.4155 39.4226 15.5527C39.7134 15.629 40.0194 15.7357 40.3408 15.8577C40.6469 15.9797 40.8764 16.0864 41.0142 16.2084C41.1519 16.3151 41.259 16.4676 41.3662 16.6811C41.458 16.8793 41.5039 17.0928 41.5039 17.3062C41.5039 17.4892 41.458 17.7179 41.3815 17.9466C41.305 18.1906 41.1978 18.4041 41.0601 18.587C40.9224 18.77 40.754 18.9225 40.5551 19.0292C40.3561 19.136 40.1878 19.1969 40.05 19.1969C39.9888 19.1969 39.9276 19.1512 39.8205 19.075C39.7287 18.9987 39.6521 18.9072 39.5909 18.7853C39.4532 18.6023 39.2542 18.2363 38.9788 17.7179C38.7033 17.1995 38.4584 16.6353 38.2136 16.0407C38.183 16.0102 38.1677 15.9797 38.1677 15.9644V15.8882C37.8922 15.9644 37.5555 16.0712 37.1576 16.1779C36.7597 16.2846 36.4077 16.3914 36.1017 16.4981C35.9945 16.5286 35.8721 16.5591 35.7344 16.6048C35.5966 16.6506 35.5048 16.6658 35.4436 16.6658C35.3824 16.6658 35.2293 16.6048 34.9539 16.4676C34.6784 16.3304 34.4029 16.1779 34.0969 15.9797C33.7449 15.7357 33.4694 15.4612 33.2705 15.1258C33.0715 14.8056 32.9644 14.5311 32.9644 14.3177C32.9644 14.2567 32.995 14.2262 33.0409 14.1957C33.1021 14.1652 33.148 14.1499 33.2092 14.1499C33.7755 14.1194 34.4182 14.0889 35.1528 14.0432C35.8874 13.9975 36.4996 13.9212 37.0199 13.8145C37.5096 13.7535 38.183 13.6468 39.0553 13.4943C39.9276 13.3418 40.7387 13.1893 41.5345 13.0521C41.5651 12.5947 41.5804 12.0762 41.5804 11.5121V10.1398C41.259 10.2008 40.9224 10.2465 40.5704 10.277C40.2184 10.3227 39.9276 10.338 39.7134 10.338C39.2542 10.338 38.8104 10.277 38.3819 10.155C37.9534 10.033 37.6473 9.88056 37.4943 9.69759C37.3872 9.56036 37.2954 9.43837 37.2035 9.31639C37.127 9.19441 37.0811 9.11817 37.0811 9.08767C37.0811 9.01143 37.0964 8.9352 37.1423 8.85896C37.1882 8.79797 37.2188 8.75222 37.2494 8.75222C37.9993 8.69123 38.8104 8.63024 39.6368 8.52351C40.4785 8.43202 41.1366 8.32528 41.6263 8.21855C41.6569 7.09021 41.6416 6.06861 41.611 5.169C41.5651 4.26938 41.5192 3.68996 41.4733 3.446C41.4121 3.23253 41.3509 3.00381 41.2743 2.77509C41.1978 2.54638 41.0907 2.3634 40.9836 2.22617C40.8764 2.08894 40.7999 1.95171 40.7387 1.79924C40.6775 1.64676 40.6622 1.54002 40.6622 1.44854C40.6622 1.31131 40.7234 1.20457 40.8305 1.09784C40.9377 1.00635 41.0754 0.960609 41.2284 0.960609C41.5804 0.960609 41.9783 1.0216 42.4527 1.12833C42.9119 1.23507 43.3098 1.38755 43.6617 1.57052C44.1209 1.75349 44.5187 1.95171 44.8554 2.14994C45.1921 2.34816 45.3605 2.53113 45.3605 2.69886C45.3299 2.75985 45.2992 2.83609 45.2839 2.95807C45.2533 3.08005 45.2227 3.18678 45.2074 3.30877C45.1309 3.58323 45.0238 4.0864 44.9166 4.84879C44.8095 5.61118 44.7177 6.41931 44.6259 7.31893C44.8095 7.25794 45.0085 7.19695 45.1921 7.09022C45.3758 6.99873 45.5288 6.92249 45.6359 6.8615C45.7431 6.80051 45.8655 6.75476 45.9879 6.72427C46.1103 6.67852 46.1869 6.66328 46.2175 6.66328C46.294 6.66328 46.4317 6.69377 46.6001 6.73952L46.5848 6.70902ZM50.8545 5.70267C51.2371 5.8094 51.6044 5.93138 51.9564 6.06861C52.0176 6.09911 52.0788 6.11436 52.1553 6.12961C52.2319 6.12961 52.2931 6.1601 52.3237 6.1906C52.7063 6.1296 53.196 6.06861 53.8235 5.99238C54.4509 5.91614 55.0325 5.82465 55.614 5.70267C55.9048 5.64168 56.2874 5.56544 56.7465 5.44346C57.2056 5.32147 57.6341 5.169 58.0473 4.97077C58.1085 4.94028 58.1697 4.92503 58.2463 4.90978C58.3228 4.90978 58.3993 4.89454 58.4452 4.89454C58.5217 4.89454 58.736 4.95553 59.0574 5.09276C59.3787 5.22999 59.7307 5.39771 60.1133 5.61118C60.5265 5.82465 60.8632 6.03812 61.1234 6.25159C61.3988 6.46506 61.5366 6.64803 61.5366 6.77001C61.5366 6.80051 61.5366 6.84625 61.5213 6.93774C61.5213 7.01398 61.4754 7.09021 61.4141 7.13596C61.2305 7.31893 61.0622 7.51715 60.9091 7.71537C60.7561 7.91359 60.6643 8.08132 60.649 8.21855C60.5418 9.08767 60.4041 9.9568 60.2357 10.8412C60.0674 11.7255 59.9297 12.3964 59.7919 12.8691C59.6848 13.2961 59.5165 13.7077 59.3022 14.0737C59.088 14.4549 58.889 14.7141 58.736 14.8818C58.6288 14.9886 58.4911 15.1105 58.3075 15.263C58.1238 15.4155 57.9402 15.5375 57.7259 15.6442C57.5882 15.7205 57.4352 15.7967 57.2821 15.8424C57.1138 15.9034 57.0066 15.9187 56.9607 15.9187C56.8536 15.9187 56.7312 15.8729 56.6087 15.7814C56.4863 15.69 56.3945 15.5832 56.3486 15.4765C56.0731 14.8513 55.7517 14.2414 55.3691 13.6315C54.9865 13.0216 54.6499 12.5947 54.3591 12.3202C54.2979 12.2592 54.2673 12.2287 54.2367 12.1982C54.206 12.1677 54.1907 12.1372 54.1907 12.122V11.9543C54.8947 12.061 55.5069 12.1677 56.0119 12.2745C56.5322 12.3812 56.8383 12.4422 56.9454 12.4422C57.0526 12.4422 57.175 12.3659 57.2974 12.2135C57.4198 12.061 57.5117 11.8628 57.5576 11.6341C57.6647 11.4206 57.7718 11.1156 57.8637 10.7039C57.9555 10.3075 58.0167 9.91105 58.0473 9.52986C58.1085 9.31639 58.1391 9.10292 58.1544 8.88945C58.1544 8.67598 58.1697 8.47776 58.1697 8.32528C58.1697 8.05082 58.0473 7.83736 57.7871 7.65438C57.527 7.48666 57.2056 7.39517 56.8383 7.39517C56.5934 7.39517 56.318 7.39517 56.0272 7.41042C55.7364 7.41042 55.4763 7.44091 55.262 7.47141C54.9865 7.5019 54.6193 7.57814 54.1601 7.70013C53.701 7.82211 53.2419 7.94409 52.7828 8.08132C52.7522 8.11182 52.7216 8.12706 52.6757 8.12706H52.5685V18.3888C52.9664 18.3583 53.4409 18.3278 53.9612 18.2821C54.4815 18.2363 54.9253 18.1906 55.2773 18.1449C55.8129 18.0839 56.4404 17.9924 57.1597 17.8399C57.879 17.6874 58.4911 17.5502 59.0114 17.413C59.1186 17.3825 59.241 17.3672 59.3634 17.352C59.4859 17.352 59.5777 17.3367 59.6236 17.3367C59.7919 17.3367 60.0368 17.3825 60.3735 17.4739C60.7102 17.5654 61.0622 17.6874 61.4141 17.8246C61.8426 18.0381 62.1946 18.2821 62.4701 18.5565C62.7456 18.831 62.8833 19.0597 62.8833 19.2427C62.8833 19.2732 62.8833 19.3189 62.8374 19.3799C62.7915 19.4409 62.7762 19.5019 62.715 19.5629C62.4395 19.8374 62.164 20.2185 61.8579 20.737C61.5672 21.2554 61.3376 21.7738 61.1693 22.3075C60.9856 22.8259 60.7714 23.3596 60.5418 23.9085C60.3123 24.4574 60.098 24.9149 59.9144 25.2656C59.8072 25.4485 59.6389 25.7077 59.4093 26.0127C59.1798 26.3177 58.9502 26.5921 58.736 26.8361C59.5165 27.4307 60.7102 28.1169 62.2865 28.8945C63.8627 29.6722 65.439 30.3431 67.0153 30.9072C67.0153 31.014 66.9541 31.1207 66.8164 31.2122C66.6786 31.3037 66.5103 31.3799 66.296 31.4409C64.9952 31.6239 63.8474 31.7916 62.8221 31.9441C61.812 32.0966 61.1999 32.1728 60.9703 32.1728C60.6949 32.1728 60.4347 32.1271 60.1745 32.0356C59.9144 31.9441 59.7307 31.8221 59.6236 31.6849C59.3022 31.2274 58.9043 30.6785 58.4299 30.0534C57.9555 29.4282 57.527 28.8488 57.1597 28.3304C57.0219 28.4371 56.8536 28.5591 56.6547 28.6811C56.4557 28.803 56.2874 28.9098 56.1496 29.0318C55.7976 29.2147 55.3997 29.4282 54.9559 29.6417C54.5121 29.8551 54.1295 30.0229 53.7929 30.1296C53.6092 30.1906 53.395 30.2363 53.1654 30.2973C52.9358 30.3583 52.7369 30.3888 52.5839 30.4193V32.676C52.5532 32.859 52.4767 33.0877 52.3543 33.3621C52.2319 33.6366 52.1094 33.8806 51.9717 34.094C51.788 34.2618 51.5891 34.399 51.4055 34.521C51.2218 34.6429 51.0688 34.7039 50.9616 34.7039C50.6862 34.7039 50.4413 34.582 50.2118 34.3227C49.9822 34.0635 49.7986 33.7433 49.6608 33.3774C49.5231 33.0572 49.416 32.737 49.3088 32.432C49.217 32.1271 49.1711 31.8831 49.1711 31.7306C49.2017 31.7306 49.217 31.6696 49.217 31.5476C49.217 31.4257 49.217 31.2732 49.2629 31.0902C49.4007 29.8856 49.5231 28.6506 49.6455 27.4003C49.7679 26.1499 49.8445 25.1893 49.8751 24.5184C49.9363 22.9631 49.9822 20.8895 50.0128 18.3126C50.0587 15.7357 50.074 13.2808 50.074 10.9327C50.0128 9.91105 49.921 8.96569 49.7833 8.08132C49.6455 7.2122 49.5078 6.61753 49.3701 6.32783C49.3394 6.22109 49.3241 6.12961 49.3241 6.03812V5.87039C49.3241 5.76366 49.3854 5.68742 49.4925 5.62643C49.5996 5.56544 49.7373 5.55019 49.9057 5.55019C50.1812 5.55019 50.5025 5.61118 50.8851 5.71792L50.8545 5.70267ZM52.5532 21.1334H52.6757C52.8593 21.1334 53.0736 21.1639 53.3031 21.2402C53.5327 21.3011 53.7469 21.3926 53.9306 21.4994C54.1448 21.6823 54.3897 21.9263 54.6346 22.2313C54.8947 22.521 55.0937 22.8259 55.262 23.1156C55.4763 23.4663 55.7823 23.8628 56.1496 24.305C56.5322 24.7471 56.8842 25.1436 57.2056 25.4943C57.3127 25.3266 57.4198 25.1436 57.527 24.9301C57.6341 24.7166 57.7259 24.5337 57.8177 24.4117C57.9249 24.122 58.0626 23.6645 58.2463 23.0394C58.4146 22.4142 58.5829 21.8196 58.7054 21.2249C58.7666 21.0419 58.7972 20.8437 58.8278 20.6607C58.8584 20.4778 58.8737 20.3253 58.8737 20.2185C58.8737 20.0356 58.8431 19.8679 58.7972 19.7611C58.736 19.6391 58.6595 19.5781 58.5523 19.5781C57.9096 19.6391 57.1903 19.7154 56.4098 19.8221C55.6293 19.9288 54.9712 20.0203 54.4662 20.1118C54.1907 20.1423 53.9153 20.1728 53.6398 20.1881C53.3643 20.2033 53.1501 20.2338 53.0124 20.2338C52.9511 20.2338 52.8899 20.2338 52.7828 20.2185C52.691 20.2185 52.6145 20.2033 52.5532 20.2033V21.1792V21.1334ZM52.844 29.7179C52.9511 29.6569 53.043 29.5959 53.1348 29.5349C53.4256 29.352 53.7775 29.1233 54.1754 28.8488C54.5733 28.5743 54.8947 28.3304 55.1702 28.0864C55.3385 27.9492 55.5069 27.7814 55.6905 27.5832C55.8742 27.385 56.0425 27.1868 56.1802 27.0038C55.9048 26.5921 55.5987 26.1194 55.2467 25.5553C54.8947 24.9911 54.5733 24.4879 54.2673 24.061C54.053 23.7103 53.7775 23.3291 53.4562 22.9327C53.1348 22.521 52.8287 22.216 52.5685 22.0025V29.9161C52.6451 29.8551 52.7369 29.8094 52.8593 29.7332L52.844 29.7179Z" fill="#272E38"/>
</g>
<defs>
<clipPath id="clip0_1478_56168">
<rect width="67" height="36" fill="white"/>
</clipPath>
</defs>
</svg>
