<svg width="186" height="86" viewBox="0 0 186 86" fill="none" xmlns="http://www.w3.org/2000/svg">
<path d="M83 29.4C87.8 28.2 93.5 33.1 93.5 35.9C93.5 38 89.9 40.8 88.5 40.4C84.9 39.4 80.8 38.8 76.1 38.7L76 49.7C75.9 56.8 73.2 65.7 67.6 65.7C64.8 65.7 64.6 62.4 64.6 54.7V45.9L24 55.2C19.7 56.2 18.1 57.2 17.1 57.7C16.3 58.1 16 58.3 15 58.3C11.5 58.3 1.7 52.6 0.5 49.8C0.2 49.1 0.3 48.3 1 48.3C1.7 48.3 3.7 49.5 13.5 48.8C15.7 48.6 18.7 48.4 22.1 48L21.3 41.1C20.6 35.5 18.4 33.7 16.3 33.1C15.6 32.9 15.6 32.5 16.3 31.8C17.3 30.8 19.6 29.7 20.8 29.5C24.3 28.9 33.6 31.1 33.6 34.1C33.6 35.5 32.6 36 32.6 38.1V46.7C43 45.3 55 43.3 64.6 40.9V14C64.6 7.7 59.7 4.59999 57.6 4C56.9 3.8 56.9 3.19999 57.6 2.5C59 1.1 62.7 -5.96046e-06 64.1 -5.96046e-06C67.6 -5.96046e-06 77.5 4.2 77.5 7C77.5 8.4 76.5 8.9 76.5 11L76.2 32.3C79.8 31.9 81.1 30.9 81.9 30.1C82.3 29.7 82.6 29.5 83 29.4ZM17 22.5C13.5 22.5 6.2 18.5 5 15.7C4.7 15 4.8 14.2 5.5 14.2C5.8 14.2 6.9 15.8 16 14.7L36 12.2C41.6 11.5 41.6 9.19999 43 9.19999C47.2 9.19999 56 11.2 56 14C56 15.4 53.8 16.4 53.5 18.5C52.9 22.7 52.2 28.8 51.5 31.6C50.6 35.1 43.8 36.8 41.7 36.8C40.7 36.8 40.2 36.5 40.2 36C40.2 35.5 40.4 35.5 40.6 32.8C40.9 29.3 41.3 23 41 18.1L27 19.8C18.6 20.8 19.1 22.5 17 22.5ZM68.5 74.2C74.1 73.3 82.5 77.2 82.5 80C82.5 82.1 79.4 85.1 78 84.9C69.6 83.7 51.3 84.3 35.4 85.4C34 85.5 31.3 83.2 31 80.4L30.3 72.7C29.5 66.3 25.9 64.8 23.8 64.2C23.1 64 23.1 63.4 23.8 62.7C25.2 61.3 27.9 59.8 29.3 59.7C33.5 59.4 42.9 61.4 42.9 64.2C42.9 65.6 42.1 65.8 42.3 68.6L42.8 76.3C42.9 77.7 43.6 77.7 44.3 77.7C46.4 77.7 54.4 77.4 56.5 77.2C67.7 76.1 66.7 74.5 68.5 74.2ZM108.796 20.1C108.096 19.9 108.096 19.3 108.796 18.6C110.196 17.2 112.896 16.1 114.296 16.1C119.196 16.1 127.796 17.6 127.796 21.1C127.796 22.5 127.196 23 127.296 25.1L127.396 27.1L155.196 23.7V22.6C154.996 16.3 152.096 14.2 149.996 13.6C149.296 13.4 149.296 12.8 149.996 12.1C150.996 11.1 154.296 9.6 155.696 9.6C160.596 9.6 168.696 12.8 168.696 15.6C168.696 17 167.696 17.5 167.696 19.6L167.596 40.3C167.596 45.9 163.596 51.3 158.696 51.3C157.196 51.3 156.496 50 156.096 47.7L126.396 51.3C124.896 53.3 122.896 54.9 120.496 54.9C117.696 54.9 117.596 50.7 116.596 42.9L114.796 28.1C113.896 21.7 110.896 20.7 108.796 20.1ZM155.396 30.2L127.796 33.6L128.496 44.5L155.696 41.1V39.3L155.396 30.2ZM170.996 63.9C176.596 63.1 185.996 66.4 185.996 69.9C185.996 72 182.396 75.2 180.996 74.9C166.896 71.9 128.696 76.9 117.496 78.3C111.896 79 109.896 80.1 108.496 80.1C104.996 80.1 97.1961 74.6 95.9961 71.8C95.6961 71.1 95.7961 70.3 96.4961 70.3C96.8961 70.3 98.6961 71.6 108.496 71.3C115.696 71.1 126.396 70.1 136.496 69.1L136.096 64.6C135.696 60.4 134.396 57.4 131.596 56.6C130.896 56.4 130.896 55.8 131.596 55.1C132.996 53.7 135.696 52.7 137.096 52.6C141.996 52.3 149.796 55 149.796 57.1C149.796 57.8 149.196 58.3 149.096 61.1L148.896 67.8L159.996 66.6C169.796 65.6 169.596 64.1 170.996 63.9Z" fill="#272E38"/>
</svg>
