<svg width="24" height="24" viewBox="0 0 24 24" fill="none" xmlns="http://www.w3.org/2000/svg">
<path d="M17.7857 12.9625H12.9643V17.7839C12.9643 18.0397 12.8627 18.285 12.6819 18.4658C12.501 18.6466 12.2557 18.7482 12 18.7482C11.7443 18.7482 11.499 18.6466 11.3181 18.4658C11.1373 18.285 11.0357 18.0397 11.0357 17.7839V12.9625H6.21429C5.95854 12.9625 5.71327 12.8609 5.53243 12.6801C5.35159 12.4992 5.25 12.254 5.25 11.9982C5.25 11.7425 5.35159 11.4972 5.53243 11.3164C5.71327 11.1355 5.95854 11.0339 6.21429 11.0339H11.0357V6.21252C11.0357 5.95677 11.1373 5.7115 11.3181 5.53066C11.499 5.34982 11.7443 5.24823 12 5.24823C12.2557 5.24823 12.501 5.34982 12.6819 5.53066C12.8627 5.7115 12.9643 5.95677 12.9643 6.21252V11.0339H17.7857C18.0415 11.0339 18.2867 11.1355 18.4676 11.3164C18.6484 11.4972 18.75 11.7425 18.75 11.9982C18.75 12.254 18.6484 12.4992 18.4676 12.6801C18.2867 12.8609 18.0415 12.9625 17.7857 12.9625Z" fill="white"/>
</svg>
