<svg width="28" height="28" viewBox="0 0 28 28" fill="none" xmlns="http://www.w3.org/2000/svg">
<path d="M11.6667 21C13.7375 20.9998 15.7487 20.3065 17.3799 19.0307L22.5085 24.1593L24.1582 22.5097L19.0295 17.381C20.306 15.7497 20.9997 13.7381 21 11.6667C21 6.52051 16.8129 2.33334 11.6667 2.33334C6.52054 2.33334 2.33337 6.52051 2.33337 11.6667C2.33337 16.8128 6.52054 21 11.6667 21ZM11.6667 4.66668C15.5272 4.66668 18.6667 7.80618 18.6667 11.6667C18.6667 15.5272 15.5272 18.6667 11.6667 18.6667C7.80621 18.6667 4.66671 15.5272 4.66671 11.6667C4.66671 7.80618 7.80621 4.66668 11.6667 4.66668Z" fill="#3B4A59"/>
</svg>
