<svg width="16" height="16" viewBox="0 0 16 16" fill="none" xmlns="http://www.w3.org/2000/svg">
<path d="M6.66634 12C7.84968 11.9998 8.99893 11.6037 9.93101 10.8746L12.8617 13.8053L13.8043 12.8626L10.8737 9.93198C11.6031 8.99981 11.9995 7.85029 11.9997 6.66665C11.9997 3.72598 9.60701 1.33331 6.66634 1.33331C3.72567 1.33331 1.33301 3.72598 1.33301 6.66665C1.33301 9.60731 3.72567 12 6.66634 12ZM6.66634 2.66665C8.87234 2.66665 10.6663 4.46065 10.6663 6.66665C10.6663 8.87265 8.87234 10.6666 6.66634 10.6666C4.46034 10.6666 2.66634 8.87265 2.66634 6.66665C2.66634 4.46065 4.46034 2.66665 6.66634 2.66665Z" fill="#3B4A59"/>
</svg>
